<svg width="20" height="20" viewBox="0 0 16 16" fill="none" xmlns="http://www.w3.org/2000/svg">
<g id="icon/info">
<path id="Vector" d="M8 7.33333C7.82319 7.33333 7.65362 7.40357 7.52859 7.52859C7.40357 7.65361 7.33333 7.82318 7.33333 8V10.6667C7.33333 10.8435 7.40357 11.013 7.52859 11.1381C7.65362 11.2631 7.82319 11.3333 8 11.3333C8.17681 11.3333 8.34638 11.2631 8.4714 11.1381C8.59643 11.013 8.66666 10.8435 8.66666 10.6667V8C8.66666 7.82318 8.59643 7.65361 8.4714 7.52859C8.34638 7.40357 8.17681 7.33333 8 7.33333ZM8.25333 4.72C8.09102 4.65332 7.90897 4.65332 7.74666 4.72C7.66483 4.75172 7.59007 4.7993 7.52666 4.85999C7.46778 4.9248 7.42043 4.99921 7.38666 5.07999C7.34934 5.15911 7.33108 5.24588 7.33333 5.33333C7.33282 5.42107 7.34964 5.50804 7.38282 5.58927C7.41599 5.67049 7.46488 5.74437 7.52666 5.80666C7.59146 5.86555 7.66587 5.9129 7.74666 5.94666C7.84766 5.98816 7.95731 6.00421 8.06596 5.9934C8.17462 5.9826 8.27895 5.94528 8.36981 5.88471C8.46066 5.82414 8.53524 5.74218 8.587 5.64604C8.63877 5.5499 8.66612 5.44252 8.66666 5.33333C8.66421 5.15682 8.59515 4.98775 8.47333 4.85999C8.40993 4.7993 8.33517 4.75172 8.25333 4.72ZM8 1.33333C6.68146 1.33333 5.39252 1.72432 4.2962 2.45686C3.19987 3.18941 2.34539 4.2306 1.8408 5.44877C1.33622 6.66695 1.20419 8.00739 1.46143 9.3006C1.71866 10.5938 2.3536 11.7817 3.28595 12.714C4.2183 13.6464 5.40619 14.2813 6.6994 14.5386C7.9926 14.7958 9.33305 14.6638 10.5512 14.1592C11.7694 13.6546 12.8106 12.8001 13.5431 11.7038C14.2757 10.6075 14.6667 9.31854 14.6667 8C14.6667 7.12452 14.4942 6.25761 14.1592 5.44877C13.8242 4.63993 13.3331 3.90501 12.714 3.28595C12.095 2.66689 11.3601 2.17583 10.5512 1.8408C9.74238 1.50577 8.87548 1.33333 8 1.33333ZM8 13.3333C6.94516 13.3333 5.91402 13.0205 5.03696 12.4345C4.15989 11.8485 3.47631 11.0155 3.07264 10.041C2.66897 9.06643 2.56336 7.99408 2.76914 6.95951C2.97493 5.92495 3.48288 4.97464 4.22876 4.22876C4.97464 3.48288 5.92495 2.97493 6.95952 2.76914C7.99408 2.56335 9.06644 2.66897 10.041 3.07264C11.0155 3.47631 11.8485 4.15989 12.4345 5.03695C13.0205 5.91402 13.3333 6.94516 13.3333 8C13.3333 9.41448 12.7714 10.771 11.7712 11.7712C10.771 12.7714 9.41449 13.3333 8 13.3333Z" fill="#B5B8BD"/>
</g>
</svg>
